<svg width="144" height="144" viewBox="0 0 144 144" fill="none" xmlns="http://www.w3.org/2000/svg">
<g id="skill/analytical">
<mask id="mask0" mask-type="alpha" maskUnits="userSpaceOnUse" x="0" y="0" width="144" height="144">
<path id="Mask" d="M72 144C111.765 144 144 111.765 144 72C144 32.2355 111.765 0 72 0C32.2355 0 0 32.2355 0 72C0 111.765 32.2355 144 72 144Z" fill="white"/>
</mask>
<g mask="url(#mask0)">
<path id="bg" d="M68 136C105.555 136 136 105.555 136 68C136 30.4446 105.555 0 68 0C30.4446 0 0 30.4446 0 68C0 105.555 30.4446 136 68 136Z" transform="translate(4 4)" fill="#FFCE7E"/>
<path id="border" d="M72 9C106.74 9 135 37.26 135 72C135 106.74 106.74 135 72 135C37.26 135 9 106.74 9 72C9 37.26 37.26 9 72 9ZM72 0C32.24 0 0 32.24 0 72C0 111.76 32.24 144 72 144C111.76 144 144 111.76 144 72C144 32.24 111.76 0 72 0Z" fill="#343799"/>
<path id="glass_bg" d="M40 80C62.0914 80 80 62.0914 80 40C80 17.9086 62.0914 0 40 0C17.9086 0 0 17.9086 0 40C0 62.0914 17.9086 80 40 80Z" transform="translate(24 24)" fill="#F2A645"/>
<path id="mag_glass" fill-rule="evenodd" clip-rule="evenodd" d="M77 43C77 24.25 61.75 9 43 9C24.25 9 9 24.25 9 43C9 61.75 24.25 77 43 77C61.75 77 77 61.75 77 43ZM0 43C0 19.25 19.25 0 43 0C66.75 0 86 19.25 86 43C86 53.6027 82.1635 63.3086 75.8029 70.8052C78.8533 72.3401 81.9464 73.1467 84.3495 73.5706L86.34 71.58C87.69 70.23 89.91 70.23 91.26 71.58C92.61 72.93 92.61 75.15 91.26 76.5L90.442 77.318L106.521 93.397L93.3972 106.521L77.3182 90.4418L76.5 91.26C75.14 92.62 72.93 92.62 71.58 91.26C70.23 89.91 70.23 87.69 71.58 86.34L73.5706 84.3495C73.1467 81.9464 72.34 78.8532 70.8052 75.8029C63.3085 82.1635 53.6027 86 43 86C19.25 86 0 66.75 0 43Z" transform="translate(21 21)" fill="#343799"/>
<path id="highlight" fill-rule="evenodd" clip-rule="evenodd" d="M0.679527 0.679527C1.58556 -0.226509 3.05454 -0.226509 3.96057 0.679527L32.3306 29.0495C33.2366 29.9556 33.2366 31.4245 32.3306 32.3306C31.4245 33.2366 29.9556 33.2366 29.0495 32.3306L0.679527 3.96057C-0.226509 3.05454 -0.226509 1.58556 0.679527 0.679527Z" transform="translate(106.07 101.82)" fill="white"/>
<path id="puzzle" d="M31.09 21.0696C32.56 20.8496 33.94 21.1696 35.07 21.8496C35.48 22.0996 36 21.8296 36 21.3496V12.1996C36 10.9896 35.02 9.99958 33.8 9.99958H23.35C23 9.99958 22.8 9.60958 22.99 9.31958C23.78 8.13958 24.17 6.65958 23.93 5.08958C23.54 2.44958 21.35 0.339579 18.7 0.0395788C15.07 -0.370421 12 2.45958 12 5.99958C12 7.22958 12.37 8.36958 13.01 9.31958C13.2 9.60958 13 9.99958 12.65 9.99958H2.2C0.990001 9.99958 0 10.9796 0 12.1996V41.7996C0 43.0096 0.980001 43.9996 2.2 43.9996H33.8C35.01 43.9996 36 43.0196 36 41.7996V32.6496C36 32.1896 35.5 31.8896 35.11 32.1296C34.2 32.6796 33.14 32.9996 32 32.9996C28.46 32.9996 25.63 29.9296 26.04 26.2996C26.34 23.6596 28.45 21.4596 31.09 21.0696Z" transform="translate(46 39.0004)" fill="white"/>
</g>
</g>
</svg>
